<svg width="24" height="25" viewBox="0 0 24 25" fill="none" xmlns="http://www.w3.org/2000/svg">
<g clip-path="url(#clip0_1_5943)">
<path d="M12 21.7948L16.95 16.8448C17.9289 15.8658 18.5955 14.6185 18.8656 13.2606C19.1356 11.9028 18.9969 10.4954 18.4671 9.21631C17.9373 7.93727 17.04 6.84406 15.8889 6.07493C14.7378 5.30579 13.3844 4.89526 12 4.89526C10.6156 4.89526 9.26222 5.30579 8.11109 6.07493C6.95996 6.84406 6.06275 7.93727 5.53292 9.21631C5.00308 10.4954 4.86442 11.9028 5.13445 13.2606C5.40449 14.6185 6.07111 15.8658 7.05 16.8448L12 21.7948ZM12 24.6228L5.636 18.2588C4.37734 17.0001 3.52019 15.3964 3.17293 13.6506C2.82567 11.9048 3.00391 10.0952 3.6851 8.45066C4.36629 6.80613 5.51984 5.40053 6.99988 4.4116C8.47992 3.42267 10.22 2.89484 12 2.89484C13.78 2.89484 15.5201 3.42267 17.0001 4.4116C18.4802 5.40053 19.6337 6.80613 20.3149 8.45066C20.9961 10.0952 21.1743 11.9048 20.8271 13.6506C20.4798 15.3964 19.6227 17.0001 18.364 18.2588L12 24.6228ZM12 13.8948C12.5304 13.8948 13.0391 13.684 13.4142 13.309C13.7893 12.9339 14 12.4252 14 11.8948C14 11.3643 13.7893 10.8556 13.4142 10.4805C13.0391 10.1055 12.5304 9.89476 12 9.89476C11.4696 9.89476 10.9609 10.1055 10.5858 10.4805C10.2107 10.8556 10 11.3643 10 11.8948C10 12.4252 10.2107 12.9339 10.5858 13.309C10.9609 13.684 11.4696 13.8948 12 13.8948ZM12 15.8948C10.9391 15.8948 9.92172 15.4733 9.17158 14.7232C8.42143 13.973 8 12.9556 8 11.8948C8 10.8339 8.42143 9.81648 9.17158 9.06633C9.92172 8.31619 10.9391 7.89476 12 7.89476C13.0609 7.89476 14.0783 8.31619 14.8284 9.06633C15.5786 9.81648 16 10.8339 16 11.8948C16 12.9556 15.5786 13.973 14.8284 14.7232C14.0783 15.4733 13.0609 15.8948 12 15.8948Z" fill="#101113"/>
</g>
<defs>
<clipPath id="clip0_1_5943">
<rect width="24" height="24" fill="white" transform="translate(0 0.894775)"/>
</clipPath>
</defs>
</svg>
