<svg width="100" height="100" viewBox="0 0 100 100" xmlns="http://www.w3.org/2000/svg">
    <!-- Background Rectangle for the Calendar -->
    <rect x="10" y="20" width="80" height="70" fill="#f0f0f0" stroke="#000" stroke-width="2" />

    <!-- Header Rectangle for the Calendar -->
    <rect x="10" y="20" width="80" height="20" fill="#c0c0c0" stroke="#000" stroke-width="2" />

    <!-- Horizontal lines for days -->
    <line x1="10" y1="40" x2="90" y2="40" stroke="#000" stroke-width="2" />
    <line x1="10" y1="55" x2="90" y2="55" stroke="#000" stroke-width="2" />
    <line x1="10" y1="70" x2="90" y2="70" stroke="#000" stroke-width="2" />
    <line x1="10" y1="85" x2="90" y2="85" stroke="#000" stroke-width="2" />

    <!-- Vertical lines for days -->
    <line x1="30" y1="40" x2="30" y2="90" stroke="#000" stroke-width="2" />
    <line x1="50" y1="40" x2="50" y2="90" stroke="#000" stroke-width="2" />
    <line x1="70" y1="40" x2="70" y2="90" stroke="#000" stroke-width="2" />

    <!-- Dots representing the days -->
    <circle cx="20" cy="47.5" r="3" fill="#000" />
    <circle cx="40" cy="47.5" r="3" fill="#000" />
    <circle cx="60" cy="47.5" r="3" fill="#000" />
    <circle cx="80" cy="47.5" r="3" fill="#000" />

    <circle cx="20" cy="62.5" r="3" fill="#000" />
    <circle cx="40" cy="62.5" r="3" fill="#000" />
    <circle cx="60" cy="62.5" r="3" fill="#000" />
    <circle cx="80" cy="62.5" r="3" fill="#000" />

    <circle cx="20" cy="77.5" r="3" fill="#000" />
    <circle cx="40" cy="77.5" r="3" fill="#000" />
    <circle cx="60" cy="77.5" r="3" fill="#000" />
    <circle cx="80" cy="77.5" r="3" fill="#000" />

    <circle cx="20" cy="92.5" r="3" fill="#000" />
    <circle cx="40" cy="92.5" r="3" fill="#000" />
    <circle cx="60" cy="92.5" r="3" fill="#000" />
    <circle cx="80" cy="92.5" r="3" fill="#000" />

    <!-- Top Squares for the Date/Month Indicators -->
    <rect x="25" y="5" width="15" height="15" fill="#ff6961" stroke="#000" stroke-width="2" />
    <rect x="60" y="5" width="15" height="15" fill="#ff6961" stroke="#000" stroke-width="2" />
</svg>