<svg width="24" height="25" viewBox="0 0 24 25" fill="none" xmlns="http://www.w3.org/2000/svg">
    <g clip-path="url(#clip0_1_1950)">
        <path
            d="M17 3.89478H21C21.2652 3.89478 21.5196 4.00013 21.7071 4.18767C21.8946 4.37521 22 4.62956 22 4.89478V20.8948C22 21.16 21.8946 21.4143 21.7071 21.6019C21.5196 21.7894 21.2652 21.8948 21 21.8948H3C2.73478 21.8948 2.48043 21.7894 2.29289 21.6019C2.10536 21.4143 2 21.16 2 20.8948V4.89478C2 4.62956 2.10536 4.37521 2.29289 4.18767C2.48043 4.00013 2.73478 3.89478 3 3.89478H7V1.89478H9V3.89478H15V1.89478H17V3.89478ZM20 9.89478V5.89478H17V7.89478H15V5.89478H9V7.89478H7V5.89478H4V9.89478H20ZM20 11.8948H4V19.8948H20V11.8948ZM6 13.8948H11V17.8948H6V13.8948Z"
            fill="#101113" />
    </g>
    <defs>
        <clipPath id="clip0_1_1950">
            <rect width="24" height="24" fill="white" transform="translate(0 0.894775)" />
        </clipPath>
    </defs>
</svg>